<svg width="69" height="55" viewBox="0 0 69 55" fill="none" xmlns="http://www.w3.org/2000/svg">
<path fill-rule="evenodd" clip-rule="evenodd" d="M21.2535 18.0274C21.4724 17.5965 26.7066 14.8154 27.5524 14.316C28.2987 13.885 33.5727 10.8101 33.9209 10.8591L43.2449 16.4214C43.5931 16.6368 46.1008 17.9686 46.1903 18.3604V43.3417C46.1903 44.5266 46.0013 45.3884 46.4789 45.8683L52.0613 51.4012C52.748 52.0769 54.2306 53.6927 54.9272 54.1432L54.967 33.2846H68.4603C68.0922 32.7362 67.4354 32.1878 66.9876 31.7471C66.51 31.2672 66.102 30.8756 65.6244 30.3957L60.1115 24.9117C59.7434 24.5886 59.6539 24.6767 58.9971 24.6865L54.9272 24.6376V13.5227C54.8575 13.229 54.6983 13.2093 54.2903 12.9646C54.0515 12.8275 53.8923 12.7295 53.6535 12.5826L33.9508 0.792114C33.2841 1.04673 31.9308 1.8987 31.2442 2.29041C29.4829 3.30886 13.1436 12.6316 12.5067 12.8078V24.6081C11.8301 24.7746 1.5807 24.6963 0.078125 24.6669C0.267191 25.137 4.15797 28.6526 4.85453 29.3185C5.6506 30.0823 6.37701 30.8853 7.17308 31.6492C9.10355 33.5 8.56616 33.2748 10.1683 33.2649L12.5067 33.2552C12.4967 36.6141 12.5067 39.9731 12.5067 43.3222C12.5067 44.5071 12.3177 45.3689 12.7953 45.8487L18.3777 51.3816C19.0643 52.0573 20.547 53.6731 21.2436 54.1236C21.2535 47.1707 21.2535 40.1395 21.2535 33.2258C41.9016 33.1768 22.0794 33.2552 43.2548 33.2649L43.225 24.6571L21.2436 24.6473V17.998L21.2535 18.0274Z" fill="#fff"/>
</svg>
