<svg width="22" height="15" viewBox="0 0 22 15" fill="none" xmlns="http://www.w3.org/2000/svg">
<path d="M17.6619 6.43518H4.32856C3.84245 6.43518 3.42578 6.8287 3.42578 7.33796V8.33333H18.5415V7.33796C18.5647 6.8287 18.148 6.43518 17.6619 6.43518Z" fill="#034ABE"/>
<path d="M20.7407 0H1.25C0.555556 0 0 0.555555 0 1.25V7.10648C0 7.80093 0.555556 8.35648 1.25 8.35648H2.38426V7.36111C2.38426 6.27315 3.26389 5.41667 4.3287 5.41667H17.662C18.75 5.41667 19.6065 6.2963 19.6065 7.36111V8.35648H20.7407C21.4352 8.35648 21.9907 7.80093 21.9907 7.10648V1.22685C21.9907 0.555555 21.4352 0 20.7407 0ZM15.8333 3.00926H14.5602C14.2593 3.00926 14.0278 2.77778 14.0278 2.47685C14.0278 2.17593 14.2593 1.94444 14.5602 1.94444H15.8333C16.1343 1.94444 16.3657 2.17593 16.3657 2.47685C16.3426 2.75463 16.1111 3.00926 15.8333 3.00926ZM19.0741 3.00926H17.8009C17.5 3.00926 17.2685 2.77778 17.2685 2.47685C17.2685 2.17593 17.5 1.94444 17.8009 1.94444H19.0741C19.375 1.94444 19.6065 2.17593 19.6065 2.47685C19.6065 2.75463 19.375 3.00926 19.0741 3.00926Z" fill="#034ABE"/>
<path d="M13.1026 10.9259L13.3341 10.5324C13.4961 10.2777 13.4035 9.93052 13.1489 9.76848C12.8942 9.60644 12.547 9.69903 12.385 9.95366L12.1535 10.3472C11.6905 11.1111 11.76 12.0833 12.3155 12.7546C12.547 13.0324 12.5933 13.4259 12.4544 13.75L12.2461 14.2129C12.1304 14.4907 12.2692 14.8148 12.547 14.9537C12.6165 14.9768 12.6859 15 12.7554 15C12.9637 15 13.172 14.8611 13.2646 14.6527L13.473 14.1898C13.7739 13.4722 13.6581 12.662 13.172 12.0601C12.9174 11.7361 12.8942 11.2963 13.1026 10.9259Z" fill="#034ABE"/>
<path d="M9.60649 10.9259L9.83797 10.5324C10 10.2777 9.90741 9.93052 9.65278 9.76848C9.39815 9.60644 9.05093 9.69903 8.88889 9.95366L8.65741 10.3472C8.19445 11.1111 8.26389 12.0833 8.81945 12.7546C9.05093 13.0324 9.09723 13.4259 8.95834 13.75L8.75 14.2129C8.63426 14.4907 8.77315 14.8148 9.05093 14.9537C9.12037 14.9768 9.18982 15 9.25926 15C9.4676 15 9.67593 14.8611 9.76852 14.6527L9.97686 14.1898C10.2778 13.4722 10.162 12.662 9.67593 12.0601C9.4213 11.7361 9.39815 11.2963 9.60649 10.9259Z" fill="#034ABE"/>
<path d="M16.5987 10.9259L16.8302 10.5324C16.9922 10.2777 16.8996 9.93052 16.645 9.76848C16.3903 9.60644 16.0431 9.69903 15.8811 9.95366L15.6496 10.3472C15.1866 11.1111 15.2561 12.0833 15.8116 12.7546C16.0431 13.0324 16.0894 13.4259 15.9505 13.75L15.7422 14.2129C15.6265 14.4907 15.7653 14.8148 16.0431 14.9537C16.1126 14.9768 16.182 15 16.2515 15C16.4598 15 16.6681 14.8611 16.7607 14.6527L16.969 14.1898C17.27 13.4722 17.1542 12.662 16.6681 12.0601C16.4135 11.7361 16.3903 11.2963 16.5987 10.9259Z" fill="#034ABE"/>
<path d="M6.11039 10.9259L6.34187 10.5324C6.50391 10.2777 6.41132 9.93052 6.15669 9.76848C5.90206 9.60644 5.55484 9.69903 5.3928 9.95366L5.16132 10.3472C4.69836 11.1111 4.7678 12.0833 5.32336 12.7546C5.55484 13.0324 5.60113 13.4259 5.46224 13.75L5.25391 14.2129C5.13817 14.4907 5.27706 14.8148 5.55484 14.9537C5.62428 14.9768 5.69373 15 5.76317 15C5.9715 15 6.17984 14.8611 6.27243 14.6527L6.48076 14.1898C6.78169 13.4722 6.66595 12.662 6.17984 12.0601C5.92521 11.7361 5.90206 11.2963 6.11039 10.9259Z" fill="#034ABE"/>
</svg>
