<svg width="142" height="57" viewBox="0 0 142 57" fill="none" xmlns="http://www.w3.org/2000/svg">
<path fill-rule="evenodd" clip-rule="evenodd" d="M21.2535 19.0274C21.4724 18.5965 26.7066 15.8154 27.5524 15.316C28.2987 14.885 33.5727 11.8101 33.9209 11.8591L43.2449 17.4214C43.5931 17.6368 46.1008 18.9686 46.1903 19.3604V44.3417C46.1903 45.5266 46.0013 46.3884 46.4789 46.8683L52.0613 52.4012C52.748 53.0769 54.2306 54.6927 54.9272 55.1432L54.967 34.2846H68.4603C68.0922 33.7362 67.4354 33.1878 66.9876 32.7471C66.51 32.2672 66.102 31.8756 65.6244 31.3957L60.1115 25.9117C59.7434 25.5886 59.6539 25.6767 58.9971 25.6865L54.9272 25.6376V14.5227C54.8575 14.229 54.6983 14.2093 54.2903 13.9646C54.0515 13.8275 53.8923 13.7295 53.6535 13.5826L33.9508 1.79211C33.2841 2.04673 31.9308 2.8987 31.2442 3.29041C29.4829 4.30886 13.1436 13.6316 12.5067 13.8078V25.6081C11.8301 25.7746 1.5807 25.6963 0.078125 25.6669C0.267191 26.137 4.15797 29.6526 4.85453 30.3185C5.6506 31.0823 6.37701 31.8853 7.17308 32.6492C9.10355 34.5 8.56616 34.2748 10.1683 34.2649L12.5067 34.2552C12.4967 37.6141 12.5067 40.9731 12.5067 44.3222C12.5067 45.5071 12.3177 46.3689 12.7953 46.8487L18.3777 52.3816C19.0643 53.0573 20.547 54.6731 21.2436 55.1236C21.2535 48.1707 21.2535 41.1395 21.2535 34.2258C41.9016 34.1768 22.0794 34.2552 43.2548 34.2649L43.225 25.6571L21.2436 25.6473V18.998L21.2535 19.0274Z" fill="#034ABE"/>
<path d="M71.6328 21.0545L81.0563 1.27306H83.8127L93.2065 21.0545H89.1267L87.116 16.7554H77.7529L75.7425 21.0545H71.6328ZM79.3547 13.3084H85.5042L82.4295 6.74723L79.3547 13.3084ZM95.9529 21.0545V5.67981H99.5746V21.0545H95.9529ZM95.8332 1.89001C95.8332 0.626738 96.4699 0 97.7541 0C98.3709 0 98.8481 0.156684 99.1864 0.479846C99.5347 0.803005 99.6943 1.27306 99.6743 1.89001C99.6344 3.15328 98.9977 3.78001 97.7541 3.78001C97.1366 3.78001 96.6694 3.61354 96.3311 3.28058C95.9928 2.94762 95.8232 2.48737 95.8232 1.88021L95.8332 1.89001ZM103.525 12.4271C103.525 11.1638 103.764 10.0963 104.232 9.21497C104.699 8.34344 105.307 7.62856 106.052 7.09977C106.799 6.56116 107.645 6.17925 108.59 5.94422C109.535 5.70919 110.491 5.59168 111.446 5.59168C112.361 5.59168 113.118 5.46438 113.715 5.20976C114.312 4.95515 114.79 4.67115 115.148 4.348C115.566 3.98566 115.894 3.57437 116.123 3.10431L118.999 5.27831C118.849 5.5623 118.661 5.8365 118.452 6.1009C118.282 6.32614 118.054 6.56116 117.775 6.80598C117.496 7.0508 117.168 7.25645 116.78 7.43272C117.755 7.98113 118.432 8.66664 118.8 9.49899C119.178 10.3314 119.357 11.3107 119.357 12.4368C119.357 12.8481 119.317 13.2888 119.237 13.7393C119.158 14.1898 119.029 14.6402 118.839 15.0809C118.651 15.5216 118.382 15.9426 118.054 16.3539C117.715 16.7554 117.297 17.1276 116.78 17.4703C118.312 18.3418 119.099 19.6149 119.139 21.3189C119.158 22.3765 118.939 23.2579 118.481 23.9727C118.024 24.6876 117.426 25.2653 116.691 25.6963C115.954 26.1271 115.128 26.4405 114.203 26.6265C113.287 26.8126 112.361 26.9106 111.446 26.9106C110.511 26.9106 109.585 26.793 108.69 26.5678C107.794 26.3426 106.988 25.99 106.282 25.52C105.575 25.05 104.998 24.4428 104.54 23.6986C104.092 22.9543 103.854 22.0729 103.834 21.0545H107.456C107.575 21.5246 107.755 21.9162 108.013 22.21C108.272 22.5136 108.58 22.7487 108.948 22.9347C109.317 23.111 109.705 23.2383 110.143 23.3166C110.57 23.395 111.008 23.4439 111.446 23.4537C111.923 23.4733 112.411 23.4537 112.899 23.395C113.386 23.3362 113.824 23.2481 114.223 23.1305C114.611 23.0131 114.939 22.8368 115.198 22.6213C115.456 22.4059 115.596 22.1317 115.616 21.8183C115.616 21.7204 115.616 21.5833 115.626 21.3972C115.636 21.2112 115.576 21.0055 115.436 20.7901C115.307 20.5747 115.068 20.3592 114.75 20.1535C114.421 19.9479 113.944 19.7814 113.317 19.6443C113.188 19.6051 112.948 19.5562 112.61 19.5072C112.272 19.4485 111.913 19.3799 111.536 19.3114C111.158 19.233 110.77 19.1645 110.372 19.0959C109.983 19.0274 109.655 18.9686 109.406 18.9099C107.495 18.5378 106.033 17.8033 105.028 16.7359C104.023 15.6587 103.515 14.2289 103.515 12.4368L103.525 12.4271ZM111.456 15.8447C112.411 15.8447 113.178 15.737 113.735 15.5216C114.302 15.3061 114.73 15.0319 115.009 14.699C115.297 14.366 115.486 14.0037 115.566 13.612C115.656 13.2202 115.696 12.8384 115.696 12.4858C115.696 12.1235 115.656 11.7514 115.566 11.3596C115.476 10.9679 115.297 10.6055 115.009 10.2726C114.72 9.93967 114.292 9.66546 113.735 9.45C113.168 9.2346 112.411 9.12687 111.456 9.12687C110.521 9.12687 109.765 9.2346 109.197 9.45C108.63 9.66546 108.202 9.93967 107.924 10.2726C107.635 10.6055 107.446 10.9679 107.367 11.3596C107.277 11.7514 107.237 12.1332 107.237 12.4858C107.237 12.8481 107.277 13.2202 107.367 13.612C107.456 14.0037 107.635 14.366 107.924 14.699C108.212 15.0319 108.64 15.3061 109.197 15.5216C109.765 15.737 110.511 15.8447 111.456 15.8447ZM122.054 13.3573C122.054 12.1529 122.233 11.0659 122.601 10.1061C122.969 9.14642 123.487 8.32389 124.153 7.64819C124.82 6.97246 125.636 6.45344 126.591 6.09111C127.547 5.72878 128.631 5.55251 129.836 5.55251C131.616 5.55251 133.139 5.94422 134.403 6.73743L134.602 5.63085H137.677V21.0349H134.602L134.403 19.9577C133.099 20.7509 131.576 21.1426 129.836 21.1426C128.631 21.1426 127.547 20.9565 126.591 20.5942C125.636 20.2221 124.82 19.7129 124.153 19.0372C123.487 18.3713 122.969 17.5487 122.601 16.589C122.233 15.6292 122.054 14.5422 122.054 13.3378V13.3573ZM129.985 17.6564C132.801 17.6564 134.204 16.2267 134.204 13.3573C134.204 10.4783 132.801 9.02895 129.985 9.02895C127.168 9.02895 125.765 10.4684 125.765 13.3573C125.765 16.2168 127.168 17.6564 129.985 17.6564Z" fill="#001E36"/>
<path d="M77.5531 50.4031C77.5531 50.6871 77.7917 50.9221 78.0801 50.9221C78.3785 50.9221 78.6179 50.6773 78.6179 50.4031C78.6179 50.1289 78.3885 49.8743 78.0801 49.8743C77.7817 49.8743 77.5531 50.1289 77.5531 50.4031ZM76.4883 56.8468H79.9712V56.2984H78.5381V51.921H76.4883V52.4694H77.9213V56.2984H76.4883V56.8468ZM83.6228 51.8132C82.7176 51.8132 81.9013 52.2441 81.5929 52.8904V51.9112H80.9662V56.8468H81.5929V54.4181C81.5929 53.1843 82.3992 52.3617 83.5039 52.3617C84.5288 52.3617 85.1356 53.0472 85.1356 54.0558V56.837H85.7724V54.0558C85.7724 52.7044 84.907 51.8034 83.6029 51.8034L83.6228 51.8132ZM90.3699 51.9112L88.8272 56.4746L87.2852 51.9112H86.6086L88.2802 56.8468H89.3649L91.0266 51.9112H90.3599H90.3699ZM92.4696 54.3496H97.1063C97.0963 52.8121 96.0714 51.8132 94.5194 51.8132C92.9169 51.8132 91.8421 52.8219 91.8421 54.3398C91.8421 55.8675 92.9567 56.9447 94.5194 56.9447C95.7131 56.9447 96.6583 56.3082 96.9574 55.3093L96.3798 55.0155C96.1911 55.8577 95.4646 56.3963 94.5294 56.3963C93.325 56.3963 92.4796 55.5443 92.4796 54.3496H92.4696ZM92.5287 53.8012C92.7481 52.9296 93.5045 52.3715 94.5194 52.3715C95.5045 52.3715 96.1911 52.9101 96.3997 53.8012H92.5287ZM97.9425 55.5345C98.0614 56.3865 98.8278 56.9447 100.181 56.9447C101.425 56.9447 102.331 56.5236 102.331 55.5443C102.331 54.8196 101.694 54.3789 100.151 54.0754C98.9674 53.8306 98.738 53.5466 98.738 53.1843C98.738 52.5967 99.4047 52.3617 100.151 52.3617C101.067 52.3617 101.484 52.6652 101.544 53.1745L102.142 52.9982C102.042 52.2736 101.395 51.8132 100.141 51.8132C98.9774 51.8132 98.0913 52.1854 98.0913 53.1843C98.0913 53.8893 98.5892 54.3398 100.141 54.6336C101.326 54.8686 101.684 55.1428 101.684 55.5443C101.684 56.0927 100.997 56.3865 100.171 56.3963C99.186 56.4061 98.649 56.0046 98.5194 55.3191L97.9425 55.5345ZM107.505 55.4856L106.918 55.2603C106.918 55.9752 106.53 56.3963 105.962 56.3963C105.385 56.3963 105.097 55.9556 105.097 55.1918V52.4694H106.898V51.921H105.097V50.4129H104.47V51.4901C104.47 51.7447 104.42 51.921 104.162 51.921H103.067V52.4694H104.47V55.1918C104.47 56.2984 104.957 56.9447 105.962 56.9447C106.878 56.9447 107.515 56.4061 107.505 55.4856ZM108.55 56.8468H109.177V54.1048C109.177 53.0667 109.685 52.3715 110.45 52.3715C111.217 52.3715 111.714 53.0569 111.714 54.0656V56.8468H112.351V54.0656C112.351 53.0472 112.908 52.3715 113.674 52.3715C114.441 52.3715 114.889 53.0569 114.889 54.0656V56.8468H115.516V54.0656C115.516 52.7142 114.749 51.8132 113.674 51.8132C112.868 51.8132 112.261 52.3029 112.093 53.0374C111.913 52.3029 111.236 51.8132 110.53 51.8132C109.903 51.8132 109.396 52.1952 109.177 52.773V51.9112H108.55V56.8468ZM117.187 54.3496H121.824C121.814 52.8121 120.789 51.8132 119.237 51.8132C117.635 51.8132 116.561 52.8219 116.561 54.3398C116.561 55.8675 117.675 56.9447 119.237 56.9447C120.432 56.9447 121.377 56.3082 121.675 55.3093L121.098 55.0155C120.909 55.8577 120.182 56.3963 119.247 56.3963C118.043 56.3963 117.197 55.5443 117.197 54.3496H117.187ZM117.247 53.8012C117.466 52.9296 118.222 52.3715 119.237 52.3715C120.222 52.3715 120.909 52.9101 121.118 53.8012H117.247ZM125.397 51.8132C124.491 51.8132 123.675 52.2441 123.367 52.8904V51.9112H122.74V56.8468H123.367V54.4181C123.367 53.1843 124.173 52.3617 125.277 52.3617C126.302 52.3617 126.909 53.0472 126.909 54.0558V56.837H127.546V54.0558C127.546 52.7044 126.68 51.8034 125.377 51.8034L125.397 51.8132ZM132.83 55.4856L132.243 55.2603C132.243 55.9752 131.854 56.3963 131.288 56.3963C130.711 56.3963 130.422 55.9556 130.422 55.1918V52.4694H132.223V51.921H130.422V50.4129H129.795V51.4901C129.795 51.7447 129.745 51.921 129.486 51.921H128.392V52.4694H129.795V55.1918C129.795 56.2984 130.283 56.9447 131.288 56.9447C132.203 56.9447 132.84 56.4061 132.83 55.4856Z" fill="#034ABE"/>
<path d="M86.9264 30.1226H90.0011L90.2604 31.1997C90.6386 30.8276 91.1258 30.5339 91.6935 30.3282C92.2704 30.1226 92.9769 30.0148 93.8223 30.0148C94.3601 30.0148 94.7981 30.0638 95.1464 30.1519C95.3551 30.1911 95.5338 30.2401 95.6934 30.289V33.7949C95.5638 33.7557 95.4149 33.7263 95.2653 33.7068C94.9769 33.648 94.6186 33.6186 94.1706 33.6186C92.927 33.6186 92.0218 33.9124 91.4541 34.5097C90.8872 35.1071 90.5888 36.0081 90.5489 37.2419V45.4972H86.9264V30.1226ZM98.6385 30.1226H102.261V38.5444C102.261 39.132 102.311 39.6509 102.401 40.1014C102.5 40.5519 102.659 40.9338 102.908 41.2276C103.146 41.5312 103.475 41.7564 103.883 41.9033C104.291 42.0502 104.828 42.1285 105.475 42.1285C106.49 42.1285 107.386 41.8739 108.172 41.3647C108.46 41.1786 108.679 40.9729 108.849 40.7576C109.007 40.5421 109.137 40.3071 109.217 40.0622C109.306 39.8174 109.366 39.5726 109.405 39.3376C109.445 39.1026 109.465 38.8675 109.465 38.6423V30.1324H113.088V45.4777H110.042L109.784 44.3515C109.287 44.6746 108.649 44.9586 107.893 45.2132C107.127 45.4679 106.231 45.5952 105.196 45.5952C100.828 45.5952 98.6485 43.4212 98.6485 39.0634V30.103L98.6385 30.1226ZM116.331 40.6106H119.894C119.934 40.7282 120.013 40.875 120.143 41.0611C120.262 41.2471 120.461 41.4332 120.719 41.6095C120.979 41.7857 121.317 41.9425 121.734 42.0796C122.153 42.2069 122.69 42.2754 123.347 42.2754C124.322 42.2754 125.088 42.1579 125.625 41.9033C126.173 41.6585 126.392 41.2863 126.302 40.7771C126.173 40.121 125.058 39.6509 122.969 39.367C122.7 39.3278 122.362 39.2788 121.954 39.2102C121.546 39.1417 121.098 39.0438 120.63 38.8969C120.163 38.7598 119.695 38.5639 119.227 38.3289C118.759 38.0939 118.341 37.8001 117.963 37.4378C117.585 37.0754 117.306 36.6544 117.098 36.1549C116.898 35.6555 116.819 35.0679 116.849 34.3922C116.908 33.7165 117.098 33.1094 117.426 32.5708C117.754 32.0322 118.182 31.5719 118.729 31.19C119.277 30.8081 119.924 30.5045 120.68 30.2988C121.436 30.0932 122.262 29.9855 123.167 29.9855C124.063 30.0051 124.899 30.1324 125.655 30.3772C126.412 30.622 127.058 30.9647 127.605 31.3957C128.153 31.8265 128.581 32.3553 128.88 32.9624C129.188 33.5794 129.347 34.2454 129.367 34.9798H125.805C125.805 34.637 125.715 34.3628 125.536 34.1474C125.357 33.932 125.128 33.7557 124.849 33.6284C124.571 33.5011 124.272 33.4032 123.944 33.364C123.615 33.315 123.317 33.2955 123.059 33.2955C122.809 33.2955 122.541 33.315 122.242 33.3542C121.944 33.3934 121.665 33.4619 121.396 33.55C121.128 33.648 120.899 33.7753 120.719 33.932C120.541 34.0886 120.451 34.3041 120.451 34.5685C120.431 35.0973 120.68 35.44 121.197 35.5968C121.714 35.7534 122.491 35.9101 123.526 36.0668C124.292 36.1843 125.058 36.3312 125.835 36.5173C126.61 36.7033 127.307 36.9873 127.915 37.3496C128.531 37.7218 129.029 38.2016 129.407 38.7892C129.785 39.3865 129.974 40.1308 129.954 41.0318C129.935 41.5997 129.785 42.1481 129.506 42.6965C129.228 43.2449 128.82 43.7345 128.272 44.1654C127.725 44.5963 127.039 44.9488 126.202 45.2132C125.367 45.4777 124.392 45.605 123.257 45.605C122.392 45.5853 121.546 45.4679 120.719 45.2524C119.884 45.037 119.148 44.7236 118.511 44.3025C117.874 43.8912 117.346 43.3722 116.948 42.7651C116.55 42.1481 116.341 41.4333 116.341 40.6008L116.331 40.6106ZM133.188 39.5041V26.9595H136.84L136.811 30.0638H139.965V33.4521H136.811L136.84 40.6596C136.84 40.8457 136.86 41.0318 136.899 41.1982C136.939 41.3451 136.999 41.492 137.089 41.6389C137.179 41.776 137.308 41.8935 137.477 41.9914C137.726 42.1188 137.984 42.1873 138.254 42.1873C138.482 42.1873 138.701 42.1481 138.91 42.0599C139.119 41.9718 139.298 41.8837 139.457 41.7956C139.646 41.6976 139.825 41.5802 139.975 41.4234L141.955 43.7444C141.915 43.8031 141.805 43.9304 141.607 44.136C141.417 44.3417 141.139 44.5571 140.79 44.7725C140.432 44.988 140.004 45.1838 139.487 45.3503C138.969 45.5169 138.362 45.605 137.676 45.605C136.452 45.605 135.457 45.2328 134.691 44.4788C133.924 43.7247 133.457 42.7161 133.288 41.4528C133.268 41.4136 133.248 41.257 133.228 40.9729C133.208 40.689 133.198 40.1993 133.198 39.5041H133.188ZM67.3633 25.7158H84.5382V29.3881H77.9607V45.4972H73.9409V29.3881H67.3633V25.7158Z" fill="#001E36"/>
</svg>
