<svg width="106" height="29" viewBox="0 0 106 29" fill="none" xmlns="http://www.w3.org/2000/svg">
<path d="M0 0.669866V28.0371H20.0206V24.8174H3.21968V20.7033C4.52622 21.6654 6.13831 22.2349 7.88144 22.2349H14.0381V12.7469H7.81705V15.9665H10.8184V19.0153H7.88144C5.31118 19.0153 3.21968 16.9241 3.21968 14.3535C3.21968 11.7829 5.31118 9.69172 7.88144 9.69172H10.7685V6.47204H7.88144C6.13831 6.47204 4.52622 7.04193 3.21968 8.00364V3.88954H24.1476V12.7436H20.0206V6.47204H13.8002V9.69172H16.8009V22.2349H20.0206V15.9633H24.1476V28.0371H27.3672V0.669866H0Z" fill="#D87C37"/>
<path d="M45.0664 28.0354H42.545V23.9496H37.9373V28.0354H35.416V17.603H37.9373V21.9673H42.545V17.603H45.0664V28.0354Z" fill="#474544"/>
<path d="M56.1115 22.8192C56.1115 21.011 54.8072 19.8114 53.1211 19.8114C51.469 19.8114 50.1647 21.011 50.1647 22.8192C50.1647 24.6277 51.469 25.8273 53.1211 25.8273C54.8072 25.8273 56.1115 24.6277 56.1115 22.8192ZM47.5571 22.8192C47.5571 19.8287 49.6605 17.377 53.1211 17.377C56.6157 17.377 58.7197 19.8287 58.7197 22.8192C58.7197 25.8099 56.6157 28.2617 53.1211 28.2617C49.6605 28.2617 47.5571 25.8099 47.5571 22.8192" fill="#474544"/>
<path d="M61.2925 23.5321V17.6031H63.8138V23.5321C63.8138 24.7317 64.5614 25.8271 66.0914 25.8271C67.6568 25.8271 68.3519 24.7495 68.3519 23.5321V17.6031H70.8733V23.5321C70.8733 26.2273 69.0818 28.2615 66.0914 28.2615C63.1531 28.2615 61.2925 26.2273 61.2925 23.5321Z" fill="#474544"/>
<path d="M75.1168 24.9406C75.1168 24.9406 76.6294 25.9493 78.1594 25.9493C79.116 25.9493 79.4634 25.5495 79.4634 25.0797C79.4634 24.5407 79.0986 24.2629 77.5161 23.8279C75.2208 23.1846 73.9169 22.3324 73.9169 20.6114C73.9169 18.716 75.2733 17.377 78.1073 17.377C81.0285 17.377 82.1763 18.49 82.1763 18.49L80.8202 20.5416C80.8202 20.5416 79.6894 19.6723 78.1073 19.6723C77.1163 19.6723 76.8207 20.0026 76.8207 20.4373C76.8207 20.9589 77.3075 21.1678 78.6289 21.5152C81.0806 22.1585 82.4197 23.0626 82.4197 24.8015C82.4197 26.6966 81.098 28.2617 78.229 28.2617C75.2562 28.2617 73.7427 26.8705 73.7427 26.8705L75.1168 24.9406Z" fill="#474544"/>
<path d="M92.262 23.8102H87.6714V25.8621H93.4443V28.0354H85.1504V17.603H93.4443V19.7763H87.6714V21.8282H92.262V23.8102Z" fill="#474544"/>
<path d="M56.1115 5.88591C56.1115 4.07742 54.8072 2.87776 53.1211 2.87776C51.469 2.87776 50.1647 4.07742 50.1647 5.88591C50.1647 7.69408 51.469 8.89373 53.1211 8.89373C54.8072 8.89373 56.1115 7.69408 56.1115 5.88591ZM47.5571 5.88591C47.5571 2.89515 49.6605 0.443689 53.1211 0.443689C56.6157 0.443689 58.7197 2.89515 58.7197 5.88591C58.7197 8.87666 56.6157 11.3281 53.1211 11.3281C49.6605 11.3281 47.5571 8.87666 47.5571 5.88591" fill="#474544"/>
<path d="M61.2925 11.1021V0.669336H63.8138V8.92845H69.4579V11.1021H61.2925Z" fill="#474544"/>
<path d="M75.3319 2.84294V8.92845H76.9488C78.7573 8.92845 80.0613 7.90266 80.0613 5.88585C80.0613 3.86905 78.7573 2.84294 76.9488 2.84294H75.3319ZM77.14 11.1021H72.8105V0.669656H77.14C80.6179 0.669656 82.6692 2.8951 82.6692 5.88585C82.6692 8.87661 80.6179 11.1021 77.14 11.1021Z" fill="#474544"/>
<path d="M92.262 6.87687H87.6714V8.92845H93.4443V11.1021H85.1504V0.669336H93.4443V2.84294H87.6714V4.89452H92.262V6.87687Z" fill="#474544"/>
<path d="M106 11.1021H105.426L98.68 5.34688V11.1021H96.1758V0.669336H96.7502L103.496 6.19881V0.686722H106V11.1021Z" fill="#474544"/>
<path d="M40.94 2.84294H45.0782V0.669656H40.7484C37.2708 0.669656 35.2192 2.8951 35.2192 5.88585C35.2192 8.87661 37.2708 11.1021 40.7484 11.1021H45.0782V4.89484H40.5398V6.87687H42.5566V8.92845H40.94C39.1315 8.92845 37.8272 7.90266 37.8272 5.88585C37.8272 3.86905 39.1315 2.84294 40.94 2.84294Z" fill="#474544"/>
</svg>
