<?xml version="1.0" encoding="UTF-8"?>
<!DOCTYPE svg PUBLIC "-//W3C//DTD SVG 1.1//EN" "http://www.w3.org/Graphics/SVG/1.1/DTD/svg11.dtd">
<!-- Creator: CorelDRAW 2018 (64-Bit) -->
<svg xmlns="http://www.w3.org/2000/svg" xml:space="preserve" width="79.513mm" height="18.0301mm" version="1.1" style="shape-rendering:geometricPrecision; text-rendering:geometricPrecision; image-rendering:optimizeQuality; fill-rule:evenodd; clip-rule:evenodd"
viewBox="0 0 7951.3 1803.01"
 xmlns:xlink="http://www.w3.org/1999/xlink">
 <defs>
  <style type="text/css">
   <![CDATA[
    .fil0 {fill:#FEFEFE}
    .fil1 {fill:#D7B56D}
   ]]>
  </style>
 </defs>
 <g id="Слой_x0020_1">
  <metadata id="CorelCorpID_0Corel-Layer"/>
  <g id="_1798495354736">
   <path class="fil0" d="M1191.18 239.85l-436.01 683.48 -138.73 0 -483.6 -687.01 0 687.01 -132.84 0 0 -923.33 241.75 0 493.73 744.18 461.53 -744.18 269.85 0 0 923.33 -275.68 0 0 -13.16c0,-223.44 0,-446.88 0,-670.32zm5259.71 -239.85l874.21 0c104.99,0 230.74,7.58 325.57,55.92 62.37,31.79 106.75,87.44 128.22,153.63 20.56,63.36 19.31,134.32 -6.08,196.14 -13.43,32.69 -33.33,62.11 -59.24,86.2 -46.04,42.8 -109.27,65.8 -170.73,79.58 127.21,109.57 254.4,219.16 381.61,328.74l26.85 23.12 -331.73 0 -3.57 -2.8c-105.47,-82.54 -207.25,-169.5 -308.03,-257.69 -52.41,-45.85 -111.23,-71.18 -181.4,-71.18l-403.25 0 0 -113.48 504.62 0c141.1,0 229.97,-73.97 229.97,-152.74 0,-71.76 -62.64,-176.6 -229.97,-176.6l-777.05 0 0 -148.84zm-560.54 623.13l-677.28 0c-19.86,0 -43.49,0.92 -60.89,11.68 -8.56,5.29 -15.66,12.68 -22.08,20.32 -9.7,11.54 -18.58,24.22 -27.44,36.42l-0.11 0.16 -0.12 0.14c-57.28,74.12 -111.64,150.44 -166.83,226.08l-3.96 5.4 -179.26 0 682.85 -923.33 334.07 0 681.59 923.33 -340.21 0 -220.33 -300.2zm-643.93 -125.59l549.52 0 -274.21 -372.62 -275.31 372.62zm-1177.9 -257.69l-436.01 683.48 -138.72 0 -483.58 -687.01 0 687.01 -132.86 0 0 -923.33 241.75 0 493.73 744.18 461.52 -744.18 269.86 0 0 923.33 -275.69 0 0 -13.16c0,-223.44 0,-446.88 0,-670.32zm-1758.56 -239.85l0 923.33 -275.71 0 0 -13.16c0,-298.99 0,-598 0,-897.01l0 -13.16 275.71 0z"/>
   <path class="fil1" d="M1261.41 1436.45c34.28,0 68.64,2.43 102.46,8.25 29.32,5.03 58.36,13.55 84.75,27.47 23.4,12.34 43.41,29.12 58.24,51.13 15.76,23.4 21.56,50.81 21.56,78.7 0,27.94 -5.83,55.39 -21.55,78.88 -14.79,22.12 -34.79,39 -58.25,51.37 -26.39,13.91 -55.43,22.43 -84.75,27.47 -33.82,5.82 -68.18,8.24 -102.46,8.24l-255.88 0 0 -331.51 255.88 0zm5186.73 0l497.63 0 0 42.92 -178.81 0c-5.21,0 -9.63,1.56 -13.3,5.34 -3.63,3.73 -5.27,8.05 -5.27,13.25l0 270 -102.87 0 0 -270c0,-5.2 -1.64,-9.52 -5.26,-13.25 -3.68,-3.78 -8.09,-5.34 -13.31,-5.34l-178.81 0 0 -42.92zm-426.43 101.41l0 230.1 -51.92 0 0 -331.51 47.09 0 305.72 219.74 0 -219.74 51.91 0 0 331.51 -12.68 0c-5.08,0 -10.19,-0.56 -15.08,-2.01 -4.64,-1.38 -9.08,-3.37 -13.28,-5.78 -4.66,-2.65 -9.12,-5.63 -13.47,-8.75 -5.2,-3.73 -10.34,-7.53 -15.4,-11.33 -5.76,-4.12 -11.46,-8.3 -17.17,-12.46 -11.73,-8.53 -23.51,-16.99 -35.28,-25.45 -15.76,-11.29 -31.53,-22.56 -47.3,-33.8 -17.71,-12.63 -35.41,-25.26 -53.1,-37.9 -43.3,-30.93 -86.66,-61.8 -130.04,-92.62zm-458.39 29.18l312.15 0 0 42.92 -307.26 0c-5.23,0 -9.63,1.56 -13.3,5.34 -3.63,3.73 -5.27,8.05 -5.27,13.23l0 77.93c0,5.19 1.64,9.51 5.27,13.25 3.67,3.78 8.07,5.33 13.3,5.33l307.26 0 0 42.92 -428.69 0 0 -331.51 428.69 0 0 42.92 -312.15 0c-7.52,0 -13.68,6.17 -13.68,13.7l0 60.29c0,7.53 6.16,13.68 13.68,13.68zm-313.31 -34.84l-150.39 235.76 -51.69 0 -167.31 -237.69 0 237.69 -51.92 0 0 -331.51 89.29 0 173.24 261.12 161.94 -261.12 99.28 0 0 331.51 -69.63 0c-9.08,0 -17.15,-3.1 -23.51,-9.65 -6.21,-6.39 -9.3,-14.26 -9.3,-23.16l0 -202.95zm-877.86 126.58l0 109.18 -102.43 0 0 -331.51 299.11 0c22.16,0 44.35,1.47 66.22,5.02 19.15,3.1 38.09,8.56 55.28,17.65 15.65,8.25 28.74,19.65 38.41,34.53 10.45,16.1 14.2,34.99 14.2,53.97 0,18.91 -3.73,37.76 -14.23,53.78 -9.68,14.76 -22.8,26.07 -38.38,34.29 -17.19,9.08 -36.1,14.62 -55.22,17.85 -21.88,3.7 -44.1,5.24 -66.28,5.24l-196.68 0zm-197.42 -56.78c0,25.1 -7.57,48.08 -21.56,68.84 -15.06,22.34 -35.13,40.38 -57.71,54.89 -25.93,16.64 -54.73,28.4 -84.36,36.61 -33.51,9.29 -68.22,13.32 -102.95,13.32 -34.67,0 -69.28,-4.08 -102.73,-13.31 -29.7,-8.2 -58.6,-19.93 -84.59,-36.62 -22.58,-14.51 -42.66,-32.55 -57.71,-54.89 -13.99,-20.76 -21.56,-43.74 -21.56,-68.84 0,-25.11 7.57,-48.09 21.56,-68.85 15.05,-22.35 35.13,-40.38 57.71,-54.89 25.99,-16.68 54.89,-28.43 84.59,-36.62 33.45,-9.24 68.06,-13.32 102.73,-13.32 34.73,0 69.44,4.03 102.95,13.32 29.63,8.21 58.43,19.97 84.36,36.62 22.58,14.51 42.65,32.54 57.71,54.89 13.99,20.76 21.56,43.74 21.56,68.85zm-605.54 123.89l0 42.07 -341.82 0c-7.62,0 -15.06,-1.43 -22.08,-4.43 -6.77,-2.9 -12.85,-7.01 -18.07,-12.21 -5.21,-5.22 -9.31,-11.3 -12.21,-18.08 -3.01,-7.01 -4.43,-14.44 -4.43,-22.06l0 -274.73 102.86 0 0 270.87c0,5.2 1.73,9.48 5.41,13.17 3.68,3.68 7.97,5.4 13.16,5.4l277.18 0zm-805.08 -158.85l312.14 0 0 42.92 -307.25 0c-5.23,0 -9.63,1.56 -13.31,5.34 -3.63,3.73 -5.27,8.05 -5.27,13.23l0 77.93c0,5.19 1.64,9.51 5.27,13.25 3.68,3.78 8.09,5.33 13.31,5.33l307.25 0 0 42.92 -428.69 0 0 -331.51 428.69 0 0 42.92 -312.14 0c-7.53,0 -13.69,6.17 -13.69,13.7l0 60.29c0,7.53 6.16,13.68 13.69,13.68zm-404.56 108.25l155.32 -238.84 58.93 0 -238.31 366.56 -238.79 -366.56 112.12 0 150.73 238.84zm-635.06 -108.25l302.23 0 0 42.92 -297.34 0c-5.22,0 -9.63,1.56 -13.31,5.34 -3.63,3.73 -5.27,8.05 -5.27,13.23l0 77.93c0,5.19 1.64,9.51 5.27,13.25 3.68,3.78 8.09,5.33 13.31,5.33l297.34 0 0 42.92 -418.78 0 0 -331.51 418.41 0 0 42.92 -301.86 0c-7.53,0 -13.69,6.17 -13.69,13.7l0 60.29c0,7.53 6.16,13.68 13.69,13.68zm-616.11 -88.09l0 227.51c0,5.21 1.73,9.48 5.42,13.17 3.68,3.69 7.96,5.41 13.15,5.41l134.46 0c21.03,0 42.13,-1.85 62.72,-6.27 17.76,-3.8 34.84,-10.27 49.99,-20.37 14.31,-9.54 25.25,-22.18 33.19,-37.4 9.34,-17.94 12.24,-38.99 12.24,-59 0,-20.03 -2.9,-41.08 -12.24,-59.02 -7.94,-15.21 -18.88,-27.86 -33.19,-37.4 -15.15,-10.1 -32.23,-16.56 -49.99,-20.36 -20.59,-4.42 -41.69,-6.27 -62.72,-6.27l-153.03 0zm3263.77 0l0 136.91 196.68 0c11.62,0 23.26,-1.09 34.61,-3.68 9.75,-2.23 19.03,-5.98 27.26,-11.73 7.73,-5.42 13.61,-12.48 17.84,-20.91 4.95,-9.9 6.52,-21.37 6.52,-32.35 0,-10.88 -1.54,-22.32 -6.51,-32.1 -4.25,-8.38 -10.15,-15.34 -17.85,-20.73 -8.23,-5.76 -17.51,-9.51 -27.26,-11.74 -11.35,-2.58 -22.99,-3.67 -34.61,-3.67l-196.68 0zm-306.28 123.05c0,-17.86 -3.98,-34.81 -12.07,-50.72 -8.26,-16.23 -19.61,-30.19 -33.56,-41.89 -14.94,-12.51 -32.03,-21.86 -50.32,-28.51 -19.85,-7.24 -40.68,-10.49 -61.77,-10.49 -21.1,0 -41.94,3.25 -61.79,10.49 -18.22,6.63 -35.25,15.95 -50.08,28.49 -13.9,11.76 -25.24,25.76 -33.6,41.94 -8.2,15.87 -12.26,32.82 -12.26,50.69 0,17.85 4.06,34.81 12.26,50.67 8.36,16.18 19.7,30.18 33.6,41.94 14.83,12.55 31.86,21.87 50.08,28.51 19.85,7.22 40.69,10.48 61.79,10.48 21.09,0 41.92,-3.26 61.77,-10.48 18.29,-6.67 35.38,-16.01 50.32,-28.53 13.95,-11.68 25.3,-25.64 33.56,-41.87 8.09,-15.92 12.07,-32.88 12.07,-50.72z"/>
  </g>
 </g>
</svg>
