<svg width="28" height="13" viewBox="0 0 28 13" fill="none" xmlns="http://www.w3.org/2000/svg">
<path d="M20.5041 5.92668C21.9565 6.09668 23.2715 5.05702 23.4415 3.60449C23.6112 2.15237 22.5717 0.837258 21.1192 0.667375C19.667 0.497374 18.3519 1.53703 18.1823 2.98945C18.012 4.44187 19.0519 5.7568 20.5041 5.92668Z" fill="#034ABE"/>
<path d="M8.97249 3.77349L12.9108 2.98703L13.7577 4.34905L10.6894 7.26669C11.1632 7.38642 11.6182 7.56462 12.0411 7.79776C12.244 7.90958 12.4341 8.03875 12.6179 8.16355C12.914 8.36465 13.1927 8.55819 13.4688 8.63402C13.6872 8.69397 13.9734 8.69739 13.9916 8.69845C14.3805 8.69509 14.7233 8.58687 15.0731 8.3588C15.9828 7.7656 17.0995 7.15109 18.4845 7.09025C18.5867 7.08577 18.6899 7.08347 18.7915 7.08347C19.2358 7.08347 19.6702 7.12713 20.0857 7.21175C19.8007 6.75674 14.723 0.603587 14.723 0.603587L14.5891 0.443499C14.2615 0.0540479 13.7131 -0.108872 13.2075 0.0764123L8.42572 1.8303C7.96469 1.99889 7.68246 2.48275 7.78147 2.97901C7.89099 3.52719 8.42424 3.88289 8.97249 3.77349Z" fill="#034ABE"/>
<path d="M26.3798 9.89113C25.728 10.1834 25.2421 10.3026 24.7025 10.3026C24.4899 10.3026 24.2701 10.2836 24.0302 10.2443C23.2313 10.1018 22.6619 9.64052 22.1111 9.19436C21.7724 8.91998 21.4525 8.66076 21.0824 8.46992C20.4125 8.12266 19.6069 7.93921 18.752 7.93921C18.6634 7.93921 18.5732 7.94127 18.484 7.94523C17.3151 7.9965 16.3673 8.51654 15.517 9.07086C15.0182 9.39623 14.4265 9.55236 13.8895 9.55236C13.7276 9.55236 13.398 9.51684 13.1841 9.45512C12.7736 9.33675 12.4216 9.09759 12.0812 8.86652C11.9064 8.74767 11.7412 8.63556 11.5743 8.54357C10.8598 8.14963 10.0347 7.94139 9.18828 7.94139H9.17111C7.98611 7.94529 6.91441 8.30872 6.07202 8.99214C4.899 9.94412 4.12488 10.2116 3.90419 10.2493C3.90419 10.2493 3.71908 10.2977 3.32161 10.2977C2.56017 10.2977 1.92383 10.0483 1.28513 9.77051C0.836435 9.57538 0.413586 9.46338 0 9.43075C0.0801916 9.47707 0.156961 9.52546 0.231429 9.57656C0.555617 9.80256 0.822451 10.0773 1.08037 10.3429C1.21845 10.485 1.3488 10.6193 1.48729 10.7468C2.02951 11.2456 3.1486 11.8352 4.43662 11.8352C5.09019 11.8352 5.72258 11.6931 6.31602 11.4127C6.49062 11.3302 6.66062 11.232 6.84054 11.128C7.13906 10.9557 7.44914 10.7821 7.79275 10.6664C8.22633 10.5203 8.89938 10.5687 8.89938 10.5687C9.5972 10.6133 10.1198 10.943 10.4971 11.2252C11.6465 12.0851 12.731 12.4909 13.9101 12.5023L13.9702 12.5027C14.7814 12.5027 15.5236 12.3463 16.1763 12.038C16.4803 11.8943 16.7697 11.6829 17.0763 11.459C17.6519 11.0384 18.2473 10.6035 19.0141 10.5734C19.0597 10.5715 19.1061 10.5706 19.1532 10.5706C19.573 10.5706 20.2052 10.6435 20.8326 10.991C21.5878 11.4108 22.5015 11.8396 23.5557 11.8396C23.7089 11.8396 23.8652 11.8307 24.0204 11.8131C24.9907 11.7033 25.8109 11.3456 26.4581 10.7498C26.5969 10.6221 26.7276 10.4874 26.8659 10.3448C27.1609 10.0409 27.4659 9.72661 27.8511 9.48799C27.8801 9.46999 27.9091 9.45258 27.9384 9.43565C27.4728 9.47707 26.9795 9.62223 26.3798 9.89113Z" fill="#034ABE"/>
</svg>
