<svg width="941" height="1240" viewBox="0 0 941 1240" fill="none" xmlns="http://www.w3.org/2000/svg">
<path opacity="0.1" fill-rule="evenodd" clip-rule="evenodd" d="M492.363 400.587C497.453 390.573 619.156 325.932 638.823 314.325C656.176 304.309 778.804 232.841 786.902 233.98L1003.7 363.26C1011.8 368.267 1070.1 399.222 1072.19 408.327V988.949C1072.19 1016.49 1067.79 1036.52 1078.9 1047.67L1208.7 1176.27C1224.66 1191.98 1259.14 1229.53 1275.33 1240L1276.26 755.199H1590C1581.44 742.452 1566.17 729.706 1555.76 719.464C1544.65 708.311 1535.17 699.208 1524.06 688.055L1395.88 560.594C1387.32 553.084 1385.24 555.131 1369.96 555.36L1275.33 554.222V295.888C1273.71 289.061 1270.01 288.604 1260.52 282.916C1254.97 279.729 1251.27 277.451 1245.72 274.038L787.596 0C772.093 5.91777 740.628 25.7195 724.663 34.8237C683.71 58.4948 303.794 275.176 288.986 279.273V553.538C273.253 557.407 34.9374 555.588 0 554.905C4.3961 565.83 94.8633 647.54 111.059 663.018C129.569 680.771 146.46 699.434 164.969 717.188C209.856 760.205 197.361 754.971 234.613 754.742L288.986 754.516C288.754 832.585 288.986 910.654 288.986 988.495C288.986 1016.04 284.59 1036.07 295.696 1047.22L425.497 1175.81C441.461 1191.52 475.936 1229.08 492.132 1239.55C492.363 1077.94 492.363 914.523 492.363 753.832C972.465 752.695 511.566 754.516 1003.93 754.742L1003.24 554.677L492.132 554.449V399.904L492.363 400.587Z" fill="#034ABE"/>
</svg>
